<!-- strophe.js logo. Concept: an XMPP stanza in flight between two endpoint brackets. Generated, source: JetBrains Mono outlined to paths + hand-drawn geometry. -->
<svg xmlns="http://www.w3.org/2000/svg" viewBox="-104.20 -123.56 808.40 187.42" role="img" aria-label="strophe.js">
  <g fill="none" stroke="#EEF1F3" stroke-width="9.2" stroke-linecap="round" stroke-linejoin="miter" stroke-miterlimit="10">
    <path d="M -37.20 -93.76 L -74.40 -29.85 L -37.20 34.06"/>
    <path d="M 637.20 -93.76 L 674.40 -29.85 L 637.20 34.06"/>
  </g>
  <path d="M32.20 0.80L27.80 0.80Q18.60 0.80 13.55-3.35Q8.50-7.50 8.50-15.10L17.50-15.10Q17.50-11.30 20.20-9.15Q22.90-7 27.80-7L32.20-7Q37.20-7 39.95-9.20Q42.70-11.40 42.70-15.40Q42.70-22.50 36.20-23.40L21-25.60Q15.40-26.40 12.30-30.25Q9.20-34.10 9.20-40.40Q9.20-47.60 14.15-51.70Q19.10-55.80 27.80-55.80L32.20-55.80Q40.20-55.80 45.25-51.85Q50.30-47.90 50.70-41.50L41.60-41.50Q41.40-44.40 38.85-46.30Q36.30-48.20 32.20-48.20L27.80-48.20Q23.20-48.20 20.60-46.10Q18-44 18-40.40Q18-34.60 23.30-33.80L37.50-31.80Q51.50-29.80 51.50-15.40Q51.50-7.70 46.45-3.45Q41.40 0.80 32.20 0.80M111.50 0L95.50 0Q88.70 0 84.60-3.95Q80.50-7.90 80.50-14.50L80.50-46.80L64.70-46.80L64.70-55L80.50-55L80.50-70.50L89.50-70.50L89.50-55L112-55L112-46.80L89.50-46.80L89.50-14.50Q89.50-11.70 91.15-9.95Q92.80-8.20 95.50-8.20L111.50-8.20L111.50 0M140.20 0L131.20 0L131.20-55L140.20-55L140.20-44.50L140.40-44.50Q141.10-49.80 144.90-52.90Q148.70-56 155.10-56Q163.70-56 168.35-50.85Q173-45.70 173-36.20L173-31.50L164-31.50L164-36.20Q164-48.20 152.30-48.20Q146.40-48.20 143.30-44.80Q140.20-41.40 140.20-35L140.20 0M210 0.80Q200.10 0.80 194.25-5Q188.40-10.80 188.40-21.20L188.40-33.80Q188.40-44.30 194.20-50.05Q200-55.80 210-55.80Q220-55.80 225.80-50.05Q231.60-44.30 231.60-33.80L231.60-21.20Q231.60-10.80 225.75-5Q219.90 0.80 210 0.80M210-7.20Q215.90-7.20 219.25-10.50Q222.60-13.80 222.60-20.20L222.60-34.80Q222.60-41.20 219.25-44.50Q215.90-47.80 210-47.80Q204.20-47.80 200.80-44.50Q197.40-41.20 197.40-34.80L197.40-20.20Q197.40-13.80 200.80-10.50Q204.20-7.20 210-7.20M258.20 18L249.20 18L249.20-55L258.20-55L258.20-44.50L258.30-44.50Q259-49.90 263-52.95Q267-56 273.20-56Q281.50-56 286.40-50.55Q291.30-45.10 291.30-35.60L291.30-19.50Q291.30-10 286.40-4.50Q281.50 1 273.20 1Q267 1 263-2.10Q259-5.20 258.30-10.50L258-10.50L258.20 2L258.20 18M270.20-6.80Q275.90-6.80 279.10-9.80Q282.30-12.80 282.30-19.50L282.30-35.50Q282.30-42.30 279.10-45.25Q275.90-48.20 270.20-48.20Q264.70-48.20 261.45-44.70Q258.20-41.20 258.20-35L258.20-20Q258.20-13.80 261.45-10.30Q264.70-6.80 270.20-6.80M318.20 0L309.20 0L309.20-73L318.20-73L318.20-44.50L318.30-44.50Q319-50 322.80-53Q326.60-56 332.90-56Q341.20-56 346.10-50.90Q351-45.80 351-37L351 0L342 0L342-35.50Q342-41.70 338.85-45.05Q335.70-48.40 330.30-48.40Q324.70-48.40 321.45-44.90Q318.20-41.40 318.20-35L318.20 0M390 1Q380.30 1 374.35-4.85Q368.40-10.70 368.40-21L368.40-34Q368.40-44.30 374.35-50.15Q380.30-56 390-56Q396.50-56 401.35-53.40Q406.20-50.80 408.90-46.10Q411.60-41.40 411.60-35L411.60-25.20L377.20-25.20L377.20-20Q377.20-13.90 380.70-10.35Q384.20-6.80 390-6.80Q395-6.80 398.25-8.75Q401.50-10.70 402.20-14L411.20-14Q410.30-7.10 404.50-3.05Q398.70 1 390 1M377.20-35L377.20-32.20L402.80-32.20L402.80-35Q402.80-41.50 399.45-45.05Q396.10-48.60 390-48.60Q383.90-48.60 380.55-45.05Q377.20-41.50 377.20-35" fill="#EEF1F3"/>
  <path d="M501.40 18L489 18L489 9.80L501.40 9.80Q507.60 9.80 511.05 6.40Q514.50 3 514.50-3.10L514.50-46.80L488.50-46.80L488.50-55L523.50-55L523.50-3.10Q523.50 6.60 517.50 12.30Q511.50 18 501.40 18M518-64.90Q514.70-64.90 512.80-66.60Q510.90-68.30 510.90-71.20Q510.90-74.20 512.80-75.95Q514.70-77.70 518-77.70Q521.30-77.70 523.20-75.95Q525.10-74.20 525.10-71.20Q525.10-68.30 523.20-66.60Q521.30-64.90 518-64.90M572.20 0.80L567.80 0.80Q558.60 0.80 553.55-3.35Q548.50-7.50 548.50-15.10L557.50-15.10Q557.50-11.30 560.20-9.15Q562.90-7 567.80-7L572.20-7Q577.20-7 579.95-9.20Q582.70-11.40 582.70-15.40Q582.70-22.50 576.20-23.40L561-25.60Q555.40-26.40 552.30-30.25Q549.20-34.10 549.20-40.40Q549.20-47.60 554.15-51.70Q559.10-55.80 567.80-55.80L572.20-55.80Q580.20-55.80 585.25-51.85Q590.30-47.90 590.70-41.50L581.60-41.50Q581.40-44.40 578.85-46.30Q576.30-48.20 572.20-48.20L567.80-48.20Q563.20-48.20 560.60-46.10Q558-44 558-40.40Q558-34.60 563.30-33.80L577.50-31.80Q591.50-29.80 591.50-15.40Q591.50-7.70 586.45-3.45Q581.40 0.80 572.20 0.80" fill="#EEF1F3"/>
  <circle cx="450.00" cy="-27.50" r="18.70" fill="#818CF8"/>
</svg>
